<svg width="40" height="40" viewBox="0 0 40 40" fill="none" xmlns="http://www.w3.org/2000/svg">
<path opacity="0.1" d="M18.9193 0.694291C19.5777 0.271437 20.4223 0.271437 21.0807 0.694291L21.6356 1.05062C22.1373 1.37283 22.7566 1.45436 23.3247 1.27299L23.9528 1.07241C24.6983 0.834385 25.5141 1.05298 26.0407 1.63184L26.4844 2.11963C26.8856 2.56072 27.4627 2.79977 28.0584 2.77159L28.717 2.74043C29.4987 2.70345 30.2301 3.12574 30.5889 3.82116L30.8913 4.40718C31.1647 4.93709 31.6603 5.31736 32.2429 5.4443L32.8872 5.58468C33.6518 5.75127 34.249 6.34847 34.4156 7.11307L34.5559 7.75737C34.6829 8.33998 35.0632 8.83557 35.5931 9.10897L36.1791 9.41132C36.8745 9.77013 37.2968 10.5016 37.2598 11.2832L37.2286 11.9419C37.2005 12.5375 37.4395 13.1146 37.8806 13.5159L38.3684 13.9596C38.9473 14.4862 39.1659 15.302 38.9278 16.0474L38.7273 16.6756C38.5459 17.2436 38.6274 17.8629 38.9496 18.3647L39.306 18.9195C39.7288 19.578 39.7288 20.4225 39.306 21.081L38.9496 21.6358C38.6274 22.1376 38.5459 22.7569 38.7273 23.3249L38.9278 23.9531C39.1659 24.6985 38.9473 25.5143 38.3684 26.0409L37.8806 26.4846C37.4395 26.8859 37.2005 27.463 37.2287 28.0586L37.2598 28.7173C37.2968 29.4989 36.8745 30.2304 36.1791 30.5892L35.5931 30.8915C35.0632 31.1649 34.6829 31.6605 34.5559 32.2431L34.4156 32.8874C34.249 33.652 33.6518 34.2492 32.8872 34.4158L32.2429 34.5562C31.6603 34.6831 31.1647 35.0634 30.8913 35.5933L30.5889 36.1793C30.2301 36.8747 29.4987 37.297 28.717 37.2601L28.0584 37.2289C27.4627 37.2007 26.8856 37.4398 26.4844 37.8809L26.0407 38.3686C25.5141 38.9475 24.6983 39.1661 23.9528 38.9281L23.3247 38.7275C22.7566 38.5461 22.1373 38.6277 21.6356 38.9499L21.0807 39.3062C20.4223 39.729 19.5777 39.729 18.9193 39.3062L18.3644 38.9499C17.8627 38.6277 17.2434 38.5461 16.6753 38.7275L16.0472 38.9281C15.3017 39.1661 14.4859 38.9475 13.9593 38.3686L13.5156 37.8809C13.1144 37.4398 12.5373 37.2007 11.9416 37.2289L11.283 37.2601C10.5013 37.297 9.76988 36.8747 9.41108 36.1793L9.10873 35.5933C8.83532 35.0634 8.33974 34.6831 7.75712 34.5562L7.11282 34.4158C6.34823 34.2492 5.75102 33.652 5.58444 32.8874L5.44406 32.2431C5.31712 31.6605 4.93684 31.1649 4.40694 30.8915L3.82092 30.5892C3.12549 30.2304 2.70321 29.4989 2.74019 28.7173L2.77135 28.0586C2.79953 27.463 2.56047 26.8859 2.11939 26.4846L1.63159 26.0409C1.05273 25.5143 0.83414 24.6985 1.07217 23.9531L1.27275 23.3249C1.45412 22.7569 1.37258 22.1376 1.05037 21.6358L0.694047 21.081C0.271193 20.4225 0.271193 19.578 0.694047 18.9195L1.05037 18.3647C1.37258 17.8629 1.45412 17.2436 1.27275 16.6756L1.07217 16.0474C0.834141 15.302 1.05273 14.4862 1.6316 13.9596L2.11939 13.5159C2.56047 13.1146 2.79953 12.5375 2.77135 11.9419L2.74019 11.2832C2.70321 10.5016 3.12549 9.77013 3.82092 9.41133L4.40694 9.10897C4.93684 8.83557 5.31712 8.33998 5.44406 7.75737L5.58444 7.11307C5.75102 6.34847 6.34823 5.75127 7.11282 5.58468L7.75712 5.4443C8.33974 5.31736 8.83532 4.93708 9.10873 4.40718L9.41108 3.82116C9.76989 3.12574 10.5013 2.70345 11.283 2.74043L11.9416 2.77159C12.5373 2.79977 13.1144 2.56072 13.5156 2.11963L13.9593 1.63184C14.4859 1.05298 15.3017 0.834385 16.0472 1.07241L16.6753 1.27299C17.2434 1.45436 17.8627 1.37283 18.3644 1.05062L18.9193 0.694291Z" fill="#2D0F06"/>
<path d="M24.6667 31.3336L13 19.6669L24.6667 8.00024" stroke="white" stroke-width="2" stroke-linecap="round" stroke-linejoin="round"/>
</svg>
