<svg width="120" height="120" viewBox="0 0 120 120" fill="none" xmlns="http://www.w3.org/2000/svg">
<path d="M114.991 49.7532H108.842C108.842 49.5255 108.842 49.2978 108.615 49.2978L101.101 35.6356L99.2789 11.9544C99.2789 10.8158 98.1404 9.90503 97.0019 9.90503H85.389C84.2505 9.90503 83.112 10.8158 83.112 11.9544L81.2903 35.4079L75.8254 45.4268L70.3605 35.4079L68.5389 11.9544C68.5389 10.8158 67.4004 9.90503 66.2619 9.90503H54.649C53.5104 9.90503 52.3719 10.8158 52.3719 11.9544L50.5503 35.4079L45.0854 45.4268L39.6205 35.4079L37.7989 11.9544C37.7989 10.8158 36.6603 9.90503 35.5218 9.90503H23.9089C22.7704 9.90503 21.6319 10.8158 21.6319 11.9544L19.8102 35.4079L12.296 49.0701C12.296 49.2978 12.0683 49.5255 12.0683 49.5255H4.78178C2.04934 49.5255 0 51.5749 0 54.3073V77.3054C0 78.2162 0.227704 79.127 0.683112 79.8101C0.227704 80.4933 0 81.4041 0 82.3149V105.313C0 107.818 2.04934 110.095 4.78178 110.095H115.218C117.951 110.095 120 108.045 120 105.313V82.5426C120 81.6318 119.772 80.721 119.317 80.0378C119.772 79.3547 120 78.4439 120 77.5331V54.535C119.772 52.0303 117.723 49.7532 114.991 49.7532ZM87.2106 14.4591H94.7249L95.1803 21.2902H86.7552L87.2106 14.4591ZM85.1613 37.2295C85.389 37.0018 85.389 36.5464 85.389 36.3187L86.2998 25.8443H95.6357L96.5465 36.3187C96.5465 36.5464 96.7742 37.0018 96.7742 37.2295L103.605 49.7532H78.3302L85.1613 37.2295ZM56.2429 14.4591H63.7571L64.2125 21.2902H55.5598L56.2429 14.4591ZM54.1935 37.2295C54.4212 37.0018 54.4212 36.5464 54.4212 36.3187L55.3321 25.8443H64.4402L65.351 36.3187C65.351 36.5464 65.5787 37.0018 65.5787 37.2295L72.4099 49.7532H47.1347L54.1935 37.2295ZM25.0474 14.4591H32.5617L33.0171 21.2902H24.3643L25.0474 14.4591ZM22.9981 37.2295C23.2258 37.0018 23.2258 36.5464 23.2258 36.3187L24.1366 25.8443H33.4725L34.3833 36.3187C34.3833 36.5464 34.611 37.0018 34.611 37.2295L41.4421 49.7532H16.167L22.9981 37.2295ZM115.218 105.313C115.218 105.541 115.218 105.541 115.218 105.313L4.78178 105.541C4.55408 105.541 4.55408 105.541 4.55408 105.313V82.5426C4.55408 82.3149 4.55408 82.3149 4.78178 82.3149H115.218C115.446 82.3149 115.446 82.3149 115.446 82.5426V105.313H115.218ZM115.218 77.5331C115.218 77.5331 115.218 77.7608 115.218 77.5331L4.78178 77.7608C4.55408 77.7608 4.55408 77.7608 4.55408 77.5331V54.7627C4.55408 54.535 4.55408 54.535 4.78178 54.535H115.218C115.446 54.535 115.446 54.535 115.446 54.7627V77.5331H115.218Z" fill="#2D0F06"/>
<path d="M10.702 61.3661C11.9596 61.3661 12.9791 60.3466 12.9791 59.0891C12.9791 57.8315 11.9596 56.812 10.702 56.812C9.44445 56.812 8.42498 57.8315 8.42498 59.0891C8.42498 60.3466 9.44445 61.3661 10.702 61.3661Z" fill="#2D0F06"/>
<path d="M10.702 75.2561C11.9596 75.2561 12.9791 74.2367 12.9791 72.9791C12.9791 71.7215 11.9596 70.702 10.702 70.702C9.44445 70.702 8.42498 71.7215 8.42498 72.9791C8.42498 74.2367 9.44445 75.2561 10.702 75.2561Z" fill="#2D0F06"/>
<path d="M10.702 89.3738C11.9596 89.3738 12.9791 88.3543 12.9791 87.0967C12.9791 85.8392 11.9596 84.8197 10.702 84.8197C9.44445 84.8197 8.42498 85.8392 8.42498 87.0967C8.42498 88.3543 9.44445 89.3738 10.702 89.3738Z" fill="#2D0F06"/>
<path d="M10.702 103.036C11.9596 103.036 12.9791 102.017 12.9791 100.759C12.9791 99.5014 11.9596 98.4819 10.702 98.4819C9.44445 98.4819 8.42498 99.5014 8.42498 100.759C8.42498 102.017 9.44445 103.036 10.702 103.036Z" fill="#2D0F06"/>
<path d="M109.07 61.3661C110.328 61.3661 111.347 60.3466 111.347 59.0891C111.347 57.8315 110.328 56.812 109.07 56.812C107.813 56.812 106.793 57.8315 106.793 59.0891C106.793 60.3466 107.813 61.3661 109.07 61.3661Z" fill="#2D0F06"/>
<path d="M109.07 75.2561C110.328 75.2561 111.347 74.2367 111.347 72.9791C111.347 71.7215 110.328 70.702 109.07 70.702C107.813 70.702 106.793 71.7215 106.793 72.9791C106.793 74.2367 107.813 75.2561 109.07 75.2561Z" fill="#2D0F06"/>
<path d="M109.07 89.3738C110.328 89.3738 111.347 88.3543 111.347 87.0967C111.347 85.8392 110.328 84.8197 109.07 84.8197C107.813 84.8197 106.793 85.8392 106.793 87.0967C106.793 88.3543 107.813 89.3738 109.07 89.3738Z" fill="#2D0F06"/>
<path d="M109.07 103.036C110.328 103.036 111.347 102.017 111.347 100.759C111.347 99.5014 110.328 98.4819 109.07 98.4819C107.813 98.4819 106.793 99.5014 106.793 100.759C106.793 102.017 107.813 103.036 109.07 103.036Z" fill="#2D0F06"/>
</svg>
