<svg width="120" height="120" viewBox="0 0 120 120" fill="none" xmlns="http://www.w3.org/2000/svg">
<path d="M115.858 52.9582C115.236 50.68 113.787 48.6089 111.715 47.3662C110.266 46.5377 108.402 46.5377 106.745 47.1591L102.188 48.6089L100.946 44.4666C100.738 43.8453 100.324 43.2239 99.4957 43.2239C99.7028 42.3955 99.4957 41.567 99.2886 40.5314C98.0459 37.4247 94.7321 35.7678 91.6254 36.5963C89.7614 33.9038 86.6547 32.454 83.3409 32.6611C81.8911 32.6611 80.6484 32.8682 79.1986 33.2825C76.5061 34.1109 74.0208 35.9749 72.571 38.4603C71.5354 38.4603 70.4998 38.6674 69.4643 38.8745C67.3931 39.4959 65.7362 40.7385 64.4935 42.3955C63.6651 43.6381 63.2509 45.0879 63.2509 46.5377C62.0082 47.1591 60.9726 48.1946 60.3513 49.4373C59.7299 48.1946 58.6944 47.1591 57.2446 46.5377C57.2446 45.0879 56.8303 43.6381 56.0019 42.3955C54.7592 40.7385 53.1023 39.4959 51.0312 38.8745C49.9956 38.6674 48.96 38.4603 47.9245 38.4603C46.2676 35.9749 43.9893 34.318 41.2968 33.4896C40.0542 33.0753 38.6044 32.8682 37.1546 32.8682C33.8408 32.6611 30.9412 34.1109 28.87 36.8034C28.4558 36.8034 28.0416 36.5963 27.4202 36.8034C24.7278 36.5963 22.0353 38.2532 20.9997 40.9457C20.7926 41.7741 20.5855 42.6026 20.7926 43.6381C20.1713 43.8453 19.5499 44.2595 19.3428 44.8808L18.1001 49.0231L13.5436 47.5733C11.8867 46.952 10.2298 47.1591 8.5729 47.7804C6.50177 49.0231 5.05198 51.0942 4.43063 53.3725L0.495479 65.3851C0.0812516 66.4206 -0.125862 67.8704 0.0812516 69.3202C0.0812516 72.0127 1.94527 74.4981 4.63775 75.1194L9.19424 76.5692L7.74445 80.7115C4.01641 81.747 1.94527 85.4751 2.98084 88.996C3.60218 91.2742 5.25909 92.9312 7.53734 93.7596L40.6755 104.53C41.2968 104.737 42.1253 104.944 42.7466 104.944C46.4747 104.944 49.5814 101.837 49.5814 98.109C49.5814 96.4521 48.96 95.0023 47.9245 93.7596L59.5228 57.5147C59.7299 56.8934 59.5228 56.2721 59.3157 55.8578C59.5228 55.6507 59.7299 55.2365 59.937 55.0294C60.1442 55.2365 60.3513 55.6507 60.5584 55.8578C60.1442 56.2721 60.1442 56.8934 60.3513 57.5147L72.1567 93.7596C69.6714 96.6592 70.0856 101.009 72.9852 103.287C74.8492 104.737 77.3346 105.358 79.4057 104.53L112.544 93.7596C116.065 92.724 118.136 88.7889 117.1 85.268C116.479 82.9897 114.615 81.3328 112.337 80.7115L110.887 76.5692L115.443 75.1194C117.929 74.2909 119.793 72.0127 120 69.3202C120 67.8704 119.793 66.4206 119.379 64.9708L115.858 52.9582ZM5.88043 71.1842C4.84486 70.9771 4.22352 70.1487 4.22352 69.1131C4.22352 68.0775 4.22352 67.2491 4.63775 66.2135L8.36579 54.2009C8.5729 52.9582 9.40136 51.9227 10.4369 51.0942C11.0583 50.8871 11.6796 50.8871 12.3009 51.0942L16.8574 52.544L10.4369 72.634L5.88043 71.1842ZM43.5751 93.7596C43.368 94.5881 43.5751 95.4165 44.1964 96.0379C45.0249 96.6592 45.4391 97.9019 45.232 98.9375C44.8178 100.387 43.1609 101.216 41.9182 100.594L8.78002 89.8245C7.33022 89.4102 6.50177 87.9604 6.916 86.5106C7.33022 85.4751 8.15868 84.6466 9.40136 84.6466C10.2298 84.6466 11.0583 84.0253 11.2654 83.1968L22.8637 47.5733L25.142 48.4017L23.0708 54.8223L15.2005 79.2617C13.7507 82.3684 15.2005 86.0964 18.3072 87.5462C18.7215 87.7533 18.9286 87.7533 19.3428 87.9604L34.8763 92.9312C35.4977 93.1383 36.3261 93.3454 37.1546 93.3454C40.0542 93.1383 42.5395 91.2742 43.1609 88.3747L51.0312 63.9353L53.1023 57.5147L55.3806 58.1361L43.5751 93.7596ZM46.2676 64.5566L39.0186 86.9249C38.8115 87.5462 38.1901 88.996 36.9475 88.996C36.5332 88.996 36.3261 88.996 35.9119 88.7889L20.3784 83.8182C18.9286 83.4039 18.5144 82.3684 19.1357 80.5043L26.3847 57.929L46.2676 64.5566ZM27.6273 54.2009L29.0771 49.6444L43.1609 54.2009L48.96 56.065L47.5102 60.6214L27.6273 54.2009ZM53.5165 53.1654L27.6273 44.8808C26.7989 44.6737 25.9704 44.0524 25.3491 43.431C24.9349 43.0168 24.9349 42.3955 24.9349 41.9812C25.3491 41.1528 26.3847 40.7385 27.2131 40.7385C27.6273 40.7385 28.2487 40.7385 28.6629 40.9457H29.0771C30.1127 41.3599 31.3554 40.7385 31.7696 39.703C31.7696 39.703 31.7696 39.703 31.7696 39.4959C32.5981 37.6318 34.6692 36.3892 36.9475 36.5963C37.983 36.5963 38.8115 36.8034 39.6399 37.0105C41.7111 37.6318 43.5751 39.0816 44.4035 41.1528C44.8178 41.9812 45.6462 42.6026 46.6818 42.3955C47.5102 42.1883 48.5458 42.3955 49.3743 42.6026C50.6169 43.0168 51.4454 43.6381 52.2738 44.6737C52.6881 45.295 52.8952 45.9164 52.8952 46.7448L52.6881 46.952C52.2739 47.9875 52.6881 49.2302 53.7236 49.6444H53.9308H54.1379C55.7948 50.0587 56.6232 51.3013 56.4161 52.1298C56.209 52.9582 54.9663 53.5796 53.5165 53.1654ZM63.458 52.3369C63.2509 51.5085 64.0793 50.2658 65.7362 49.8515H65.9433C66.9789 49.6444 67.8074 48.4017 67.3931 47.3662V47.1591V46.952C67.186 46.3306 67.3931 45.5022 67.8074 44.8808C68.4287 43.8453 69.4643 43.2239 70.707 42.8097C71.5354 42.6026 72.571 42.3955 73.3994 42.6026C74.435 42.8097 75.2634 42.1883 75.6777 41.3599C76.7132 39.2888 78.3701 37.839 80.4413 37.2176C81.2697 37.0105 82.3053 36.8034 83.1338 36.8034C85.2049 36.5963 87.276 37.6318 88.3116 39.4959C88.5187 40.1172 88.9329 40.5314 89.3472 40.7385C89.9685 40.9457 90.5898 40.9457 91.0041 40.7385L91.2112 40.5314C92.8681 39.9101 94.7321 40.5314 94.9392 41.567C95.1463 42.1883 94.9392 42.6026 94.525 43.0168C93.9037 43.8453 93.2823 44.2595 92.2467 44.4666L66.3576 52.7511C65.322 53.5796 63.8722 53.1654 63.458 52.3369ZM93.9037 58.1361L101.153 80.5043C101.774 82.3684 101.36 83.4039 99.91 83.8182L84.3764 88.996C84.1693 88.996 83.7551 89.2031 83.3409 89.2031C82.0982 89.2031 81.4769 87.7533 81.2697 87.132L74.0208 64.5566L93.9037 58.1361ZM72.7781 60.6214L71.3283 56.065L77.1275 54.2009L91.2112 49.6444L92.661 54.2009L72.7781 60.6214ZM113.165 86.5106C113.579 87.9604 112.751 89.4102 111.508 90.0316L78.3701 100.801C76.9203 101.216 75.4706 100.387 74.8492 99.1446C74.435 98.109 74.8492 96.8663 75.8848 96.245C76.5061 95.6236 76.9204 94.7952 76.5061 93.9667L65.1149 58.3432L67.3931 57.7219L69.4643 64.1424L77.3346 88.5818C77.9559 91.4814 80.4413 93.5525 83.3409 93.5525C84.1693 93.5525 84.7907 93.3454 85.6191 93.1383L101.153 88.1675C104.466 87.3391 106.33 83.8182 105.502 80.5043C105.502 80.0901 105.295 79.883 105.088 79.4688L97.2175 55.0294L95.1463 48.6089L97.4246 47.7804L108.816 83.4039C109.023 84.2324 109.851 84.8537 110.68 84.8537C111.923 84.8537 112.958 85.4751 113.165 86.5106ZM116.065 68.906C116.065 69.9416 115.236 70.77 114.408 70.9771L109.851 72.634L103.431 52.3369L107.987 50.8871C108.609 50.68 109.23 50.68 109.851 50.8871C110.887 51.7156 111.715 52.7511 111.923 53.9938L115.858 66.2135C116.065 67.042 116.065 68.0775 116.065 68.906Z" fill="#2D0F06"/>
<path d="M59.7299 35.1464C60.9726 35.1464 61.8011 34.3179 61.8011 33.0753V17.1275C61.8011 15.8848 60.9726 15.0564 59.7299 15.0564C58.4873 15.0564 57.6588 15.8848 57.6588 17.1275V33.0753C57.6588 34.3179 58.6944 35.1464 59.7299 35.1464Z" fill="#2D0F06"/>
<path d="M65.7364 36.5961C66.7719 37.2175 68.0146 36.8032 68.4289 35.7677L76.7134 19.8199C77.1276 18.7844 76.7134 17.5417 75.6778 17.1275C74.6423 16.7132 73.6067 17.1275 73.1925 17.9559L64.9079 33.9037C64.4937 34.7321 64.9079 35.9748 65.7364 36.5961Z" fill="#2D0F06"/>
<path d="M50.824 35.7678C51.2382 36.8034 52.4809 37.2176 53.5165 36.8034C54.5521 36.3892 54.9663 35.1465 54.5521 34.1109C54.5521 34.1109 54.5521 33.9038 54.3449 33.9038L46.0604 17.9561C45.4391 16.9205 44.1964 16.7134 43.1608 17.3347C42.3324 17.9561 41.9181 18.9916 42.3324 19.8201L50.824 35.7678Z" fill="#2D0F06"/>
</svg>
