<svg width="19" height="17" viewBox="0 0 19 17" fill="none" xmlns="http://www.w3.org/2000/svg">
<path d="M6.97466 2.33737C7.29473 2.13183 7.70527 2.13183 8.02534 2.33737C8.26922 2.494 8.57028 2.53363 8.84639 2.44546C9.20875 2.32976 9.6053 2.43602 9.86126 2.7174C10.0563 2.93181 10.3368 3.04801 10.6264 3.03431C11.0063 3.01634 11.3619 3.22161 11.5363 3.55965C11.6692 3.81723 11.9101 4.00208 12.1933 4.06379C12.5649 4.14477 12.8552 4.43506 12.9362 4.80673C12.9979 5.08993 13.1828 5.33083 13.4404 5.46373C13.7784 5.63814 13.9837 5.99368 13.9657 6.37364C13.952 6.66316 14.0682 6.9437 14.2826 7.13874C14.564 7.3947 14.6702 7.79125 14.5545 8.15361C14.4664 8.42972 14.506 8.73078 14.6626 8.97466C14.8682 9.29473 14.8682 9.70527 14.6626 10.0253C14.506 10.2692 14.4664 10.5703 14.5545 10.8464C14.6702 11.2087 14.564 11.6053 14.2826 11.8613C14.0682 12.0563 13.952 12.3368 13.9657 12.6264C13.9837 13.0063 13.7784 13.3619 13.4404 13.5363C13.1828 13.6692 12.9979 13.9101 12.9362 14.1933C12.8552 14.5649 12.5649 14.8552 12.1933 14.9362C11.9101 14.9979 11.6692 15.1828 11.5363 15.4404C11.3619 15.7784 11.0063 15.9837 10.6264 15.9657C10.3368 15.952 10.0563 16.0682 9.86126 16.2826C9.6053 16.564 9.20875 16.6702 8.84639 16.5545C8.57028 16.4664 8.26922 16.506 8.02534 16.6626C7.70527 16.8682 7.29473 16.8682 6.97466 16.6626C6.73078 16.506 6.42972 16.4664 6.15361 16.5545C5.79125 16.6702 5.3947 16.564 5.13874 16.2826C4.9437 16.0682 4.66316 15.952 4.37364 15.9657C3.99368 15.9837 3.63814 15.7784 3.46373 15.4404C3.33083 15.1828 3.08993 14.9979 2.80673 14.9362C2.43506 14.8552 2.14477 14.5649 2.06379 14.1933C2.00208 13.9101 1.81723 13.6692 1.55965 13.5363C1.22161 13.3619 1.01634 13.0063 1.03431 12.6264C1.04801 12.3368 0.931808 12.0563 0.717399 11.8613C0.436017 11.6053 0.329761 11.2087 0.445465 10.8464C0.533629 10.5703 0.493995 10.2692 0.337371 10.0253C0.131825 9.70527 0.131825 9.29473 0.337371 8.97466C0.493995 8.73078 0.533629 8.42972 0.445465 8.15361C0.329761 7.79125 0.436017 7.3947 0.717399 7.13874C0.931808 6.9437 1.04801 6.66316 1.03431 6.37364C1.01634 5.99368 1.22161 5.63814 1.55965 5.46373C1.81723 5.33083 2.00208 5.08993 2.06379 4.80673C2.14477 4.43506 2.43506 4.14477 2.80673 4.06379C3.08993 4.00208 3.33083 3.81723 3.46373 3.55965C3.63814 3.22161 3.99368 3.01634 4.37364 3.03431C4.66316 3.04801 4.9437 2.93181 5.13874 2.7174C5.3947 2.43602 5.79125 2.32976 6.15361 2.44546C6.42972 2.53363 6.73078 2.494 6.97466 2.33737Z" fill="#007839"/>
<path d="M3 7.6L7.28571 12L18 1" stroke="white" stroke-width="2" stroke-linecap="round" stroke-linejoin="round"/>
</svg>
