<svg width="150" height="150" viewBox="0 0 150 150" fill="none" xmlns="http://www.w3.org/2000/svg">
<path d="M73.9193 0.694046C74.5777 0.271193 75.4223 0.271193 76.0807 0.694046L83.312 5.33797C83.8137 5.66018 84.4331 5.74171 85.0011 5.56034L93.1879 2.94625C93.9333 2.70822 94.7491 2.92681 95.2757 3.50568L101.059 9.86295C101.46 10.304 102.037 10.5431 102.633 10.5149L111.217 10.1088C111.999 10.0718 112.73 10.4941 113.089 11.1895L117.029 18.8269C117.303 19.3568 117.798 19.7371 118.381 19.864L126.778 21.6936C127.543 21.8602 128.14 22.4574 128.306 23.222L130.136 31.619C130.263 32.2016 130.643 32.6972 131.173 32.9706L138.81 36.9111C139.506 37.2699 139.928 38.0013 139.891 38.783L139.485 47.3674C139.457 47.963 139.696 48.5401 140.137 48.9414L146.494 54.7243C147.073 55.2509 147.292 56.0667 147.054 56.8121L144.44 64.9989C144.258 65.5669 144.34 66.1863 144.662 66.688L149.306 73.9193C149.729 74.5777 149.729 75.4223 149.306 76.0807L144.662 83.312C144.34 83.8137 144.258 84.4331 144.44 85.0011L147.054 93.1879C147.292 93.9333 147.073 94.7491 146.494 95.2757L140.137 101.059C139.696 101.46 139.457 102.037 139.485 102.633L139.891 111.217C139.928 111.999 139.506 112.73 138.81 113.089L131.173 117.029C130.643 117.303 130.263 117.798 130.136 118.381L128.306 126.778C128.14 127.543 127.543 128.14 126.778 128.306L118.381 130.136C117.798 130.263 117.303 130.643 117.029 131.173L113.089 138.81C112.73 139.506 111.999 139.928 111.217 139.891L102.633 139.485C102.037 139.457 101.46 139.696 101.059 140.137L95.2757 146.494C94.7491 147.073 93.9333 147.292 93.1879 147.054L85.0011 144.44C84.4331 144.258 83.8137 144.34 83.312 144.662L76.0807 149.306C75.4223 149.729 74.5777 149.729 73.9193 149.306L66.688 144.662C66.1863 144.34 65.5669 144.258 64.9989 144.44L56.8121 147.054C56.0667 147.292 55.2509 147.073 54.7243 146.494L48.9414 140.137C48.5401 139.696 47.963 139.457 47.3674 139.485L38.783 139.891C38.0013 139.928 37.2699 139.506 36.9111 138.81L32.9706 131.173C32.6972 130.643 32.2016 130.263 31.619 130.136L23.222 128.306C22.4574 128.14 21.8602 127.543 21.6936 126.778L19.864 118.381C19.7371 117.798 19.3568 117.303 18.8269 117.029L11.1895 113.089C10.4941 112.73 10.0718 111.999 10.1088 111.217L10.5149 102.633C10.5431 102.037 10.304 101.46 9.86295 101.059L3.50568 95.2757C2.92681 94.7491 2.70822 93.9333 2.94625 93.1879L5.56034 85.0011C5.74171 84.4331 5.66018 83.8137 5.33797 83.312L0.694046 76.0807C0.271193 75.4223 0.271193 74.5777 0.694046 73.9193L5.33797 66.688C5.66018 66.1863 5.74171 65.5669 5.56034 64.9989L2.94625 56.8121C2.70822 56.0667 2.92681 55.2509 3.50568 54.7243L9.86295 48.9414C10.304 48.5401 10.5431 47.963 10.5149 47.3674L10.1088 38.783C10.0718 38.0013 10.4941 37.2699 11.1895 36.9111L18.8269 32.9706C19.3568 32.6972 19.7371 32.2016 19.864 31.619L21.6936 23.222C21.8602 22.4574 22.4574 21.8602 23.222 21.6936L31.619 19.864C32.2016 19.7371 32.6972 19.3568 32.9706 18.8269L36.9111 11.1895C37.2699 10.4941 38.0013 10.0718 38.783 10.1088L47.3674 10.5149C47.963 10.5431 48.5401 10.304 48.9414 9.86295L54.7243 3.50568C55.2509 2.92681 56.0667 2.70822 56.8121 2.94625L64.9989 5.56034C65.5669 5.74171 66.1863 5.66018 66.688 5.33797L73.9193 0.694046Z" fill="#2D0F06"/>
<path fill-rule="evenodd" clip-rule="evenodd" d="M102.042 47.1852C100.868 45.9989 99.2929 45.1991 97.3942 45.0213C96.8589 43.3729 95.8467 41.8755 94.434 40.7647C92.3914 39.334 90.0249 38.5253 87.4109 38.5741C86.1422 38.7162 84.8734 38.8583 83.6812 39.236C80.8558 37.0143 77.621 35.9612 74.2151 36.0011C72.6315 35.9833 70.8858 36.2765 69.2166 36.8051C65.3249 37.778 62.5218 40.4838 61.1315 44.3004C60.6546 44.4514 60.1012 44.367 59.4623 44.829C56.2859 45.5754 53.7978 48.4411 53.5997 51.88C53.6672 52.8975 53.7346 53.9149 54.3555 55.0168C53.7166 55.4789 53.1542 56.1764 53.1451 56.9584L53.244 62.1213L47.4626 62.1344C45.3255 62.0322 43.4944 62.8719 41.8162 64.1825C39.8905 66.3507 38.9861 69.2342 39.1119 72.0511L39.017 87.1443C38.9224 88.4727 39.2193 90.1967 39.9931 91.7695C40.9873 94.8308 44.0512 96.977 47.3805 96.7016L53.1619 96.6884L53.0222 101.927C49.1124 104.464 48.1044 109.458 50.5968 113.083C52.1534 115.447 54.6729 116.727 57.6018 116.838L99.7314 116.999C100.523 117.008 101.554 116.942 102.269 116.715C106.561 115.356 108.991 110.69 107.614 106.452C107.002 104.568 105.752 103.146 104.101 102.111L104.071 56.6712C104.08 55.8893 103.612 55.2583 103.22 54.8629C103.382 54.5519 103.468 54.0054 103.63 53.6944C104.477 51.8086 102.924 48.5692 102.042 47.1852ZM44.6858 90.0236C45.0681 91.201 46.0894 91.9164 47.3582 91.7742L53.1395 91.7611L53.1133 66.5777L47.332 66.5908C46.5401 66.5819 45.8248 66.8085 45.1859 67.2706C44.2995 68.5901 43.7281 70.0697 43.9485 71.5581L44.092 86.5757C43.9975 87.9042 44.3034 88.8461 44.6858 90.0236ZM100.65 106.06C99.7048 105.581 99.1605 104.714 99.093 103.697L99.5309 58.8882L96.6784 59.0125L96.6277 97.7251C96.983 101.248 94.8098 104.274 91.548 105.567C90.5941 105.869 89.5638 105.936 88.772 105.927L69.0524 105.939C68.7757 105.897 68.5777 105.895 68.3798 105.893C68.1818 105.891 67.9839 105.888 67.7072 105.846C63.595 105.331 60.5492 101.62 61.0713 97.5595L61.122 58.847L58.1931 58.7358L57.9937 103.469C58.0611 104.486 57.3367 105.495 56.3829 105.797C54.9522 106.25 54.3043 107.494 54.2098 108.823C54.2682 110.622 55.7573 111.968 57.5795 111.911L99.7091 112.072C101.369 112.325 102.971 110.779 102.913 108.98C102.769 107.727 101.833 106.465 100.65 106.06ZM91.3232 97.5872L91.4096 69.5113L66.0707 69.2262L66.0608 97.5375C66.0337 99.8834 66.893 100.91 68.7151 100.852L88.4347 100.839C88.9881 100.924 89.2266 100.848 89.7035 100.697C91.1342 100.244 91.3142 98.3691 91.3232 97.5872ZM66.1115 58.8249L66.1248 64.5343L91.3873 64.584L91.374 58.8746L84.009 58.8699L66.1115 58.8249ZM62.6833 53.9374L95.5493 53.9163C97.3715 53.8586 98.5728 52.699 98.5053 51.6815C98.4379 50.664 97.0252 49.5532 94.9646 49.6864L94.4877 49.8375C93.1424 49.7441 92.2067 48.4823 92.3012 47.1538L92.4632 46.8428C92.1573 45.9008 91.6894 45.2699 90.983 44.7145C89.6468 43.8392 88.4636 43.4348 86.8799 43.417C85.8496 43.4836 84.5808 43.6257 83.7035 44.1633C82.5877 44.7764 81.4044 44.3721 80.6216 43.5812C78.903 41.5284 76.2216 40.5598 73.6076 40.6085C72.5773 40.6752 71.547 40.7418 70.3547 41.1194C67.6553 41.7147 65.7296 43.8828 65.464 46.3043L65.5405 46.5398C65.446 47.8683 64.2447 49.0279 62.8995 48.9345L62.4226 49.0856C61.8692 49.0012 61.1538 49.2277 60.6769 49.3788C59.7231 49.6809 58.6838 50.5295 58.5128 51.6225C58.6657 52.0934 58.8951 52.7999 59.525 53.1198C60.4698 53.5997 61.653 54.004 62.6833 53.9374Z" fill="white"/>
</svg>
