<svg width="32" height="32" viewBox="0 0 32 32" fill="none" xmlns="http://www.w3.org/2000/svg">
<path d="M16 32C24.8366 32 32 24.8366 32 16C32 7.16344 24.8366 0 16 0C7.16344 0 0 7.16344 0 16C0 24.8366 7.16344 32 16 32Z" fill="#2C8536"/>
<path d="M24 19.308C22.274 19.308 20.628 18.932 19.11 18.19C18.872 18.076 18.596 18.058 18.344 18.144C18.092 18.232 17.886 18.416 17.77 18.654L17.05 20.144C14.89 18.904 13.098 17.11 11.856 14.95L13.348 14.23C13.588 14.114 13.77 13.908 13.858 13.656C13.944 13.404 13.928 13.128 13.812 12.89C13.068 11.374 12.692 9.728 12.692 8C12.692 7.448 12.244 7 11.692 7H8C7.448 7 7 7.448 7 8C7 17.374 14.626 25 24 25C24.552 25 25 24.552 25 24V20.308C25 19.756 24.552 19.308 24 19.308Z" fill="#FAFAFA"/>
</svg>
